<svg id="visual" viewBox="0 0 900 600" width="900" height="600" xmlns="http://www.w3.org/2000/svg" xmlns:xlink="http://www.w3.org/1999/xlink" version="1.1"><path d="M0 139L82 235L164 181L245 145L327 145L409 109L491 139L573 217L655 199L736 193L818 187L900 211L900 0L818 0L736 0L655 0L573 0L491 0L409 0L327 0L245 0L164 0L82 0L0 0Z" fill="#008080"></path><path d="M0 217L82 301L164 271L245 193L327 217L409 151L491 223L573 289L655 259L736 235L818 277L900 247L900 209L818 185L736 191L655 197L573 215L491 137L409 107L327 143L245 143L164 179L82 233L0 137Z" fill="#026e6e"></path><path d="M0 283L82 367L164 349L245 223L327 301L409 205L491 253L573 349L655 301L736 307L818 319L900 331L900 245L818 275L736 233L655 257L573 287L491 221L409 149L327 215L245 191L164 269L82 299L0 215Z" fill="#045c5c"></path><path d="M0 349L82 451L164 421L245 337L327 349L409 283L491 307L573 427L655 343L736 397L818 385L900 409L900 329L818 317L736 305L655 299L573 347L491 251L409 203L327 299L245 221L164 347L82 365L0 281Z" fill="#044a4a"></path><path d="M0 463L82 523L164 541L245 427L327 469L409 379L491 361L573 517L655 481L736 487L818 481L900 517L900 407L818 383L736 395L655 341L573 425L491 305L409 281L327 347L245 335L164 419L82 449L0 347Z" fill="#043a3a"></path><path d="M0 601L82 601L164 601L245 601L327 601L409 601L491 601L573 601L655 601L736 601L818 601L900 601L900 515L818 479L736 485L655 479L573 515L491 359L409 377L327 467L245 425L164 539L82 521L0 461Z" fill="#032a2a"></path></svg>